<svg width="235" height="269" viewBox="0 0 235 269" fill="none" xmlns="http://www.w3.org/2000/svg">
<path d="M77.5 0.5H12.5L80.5 119C90.0424 113.234 102.139 110.116 113.216 111.38C124.293 112.643 134.64 117.54 142.639 125.306C150.638 133.072 155.839 143.27 157.429 154.305C159.02 165.34 156.909 176.591 151.428 186.299C145.947 196.008 137.405 203.628 127.135 207.967C116.865 212.307 105.447 213.122 94.6649 210.285C83.8828 207.448 74.3442 201.12 67.5397 192.288C60.7352 183.456 57.0482 172.619 57.0548 161.47V106.5H0.5V161.437C0.486023 185.085 8.30664 208.072 22.7397 226.805C37.1729 245.538 57.4053 258.962 80.2753 264.979C103.145 270.996 234.5 268 234.5 268L200.677 214.102C200.677 214.102 216.779 169.645 213.406 146.238C210.033 122.832 199.001 101.202 182.034 84.7292C165.066 68.2564 143.12 57.8686 119.624 55.1891C114.721 54.63 109.809 54.413 104.92 54.5309L77.5 0.5Z" fill="white"/>
</svg>
