<svg width="16" height="16" viewBox="0 0 16 16" fill="none" xmlns="http://www.w3.org/2000/svg">
<rect width="16" height="16" fill="white"/>
<path fill-rule="evenodd" clip-rule="evenodd" d="M11.975 8C11.975 10.2091 10.2367 12 8.09234 12C8.02648 12 7.961 11.9983 7.89595 11.995L7.90061 12H3.20312L5.2143 10.6849C4.59003 9.97508 4.20973 9.0333 4.20973 8C4.20973 5.79086 5.94804 4 8.09234 4C10.2367 4 11.975 5.79086 11.975 8ZM5.84458 8C5.84458 9.27894 6.85094 10.3157 8.09234 10.3157C9.33375 10.3157 10.3401 9.27894 10.3401 8C10.3401 6.72106 9.33375 5.68428 8.09234 5.68428C6.85094 5.68428 5.84458 6.72106 5.84458 8Z" fill="#235789"/>
<rect width="12.1695" height="1.55603" rx="0.778016" transform="matrix(0.962649 0.270753 -0.247338 0.968929 2.38486 5.46771)" fill="#1D4A75"/>
</svg>
