<svg width="134" height="87" viewBox="0 0 134 87" fill="none" xmlns="http://www.w3.org/2000/svg">
<path fill-rule="evenodd" clip-rule="evenodd" d="M110.468 43.0444C110.468 66.8172 91.2169 86.0888 67.4697 86.0888C66.7403 86.0888 66.0151 86.0707 65.2947 86.0347L65.3463 86.0888H13.3239L35.5967 71.9369C28.6832 64.2985 24.4715 54.1638 24.4715 43.0444C24.4715 19.2716 43.7225 0 67.4697 0C91.2169 0 110.468 19.2716 110.468 43.0444ZM42.5767 43.0444C42.5767 56.8072 53.7217 67.9642 67.4697 67.9642C81.2177 67.9642 92.3627 56.8072 92.3627 43.0444C92.3627 29.2816 81.2177 18.1247 67.4697 18.1247C53.7217 18.1247 42.5767 29.2816 42.5767 43.0444Z" fill="#EEEEEE"/>
<rect width="134.496" height="16.7749" rx="8.38744" transform="matrix(0.964624 0.26363 -0.254083 0.967182 4.26221 15.7942)" fill="white"/>
</svg>
