<svg width="246" height="278" viewBox="0 0 246 278" fill="none" xmlns="http://www.w3.org/2000/svg">
<path fill-rule="evenodd" clip-rule="evenodd" d="M110.316 0.0433875C141.004 -1.3756 160.137 32.3487 184.071 51.6992C206.513 69.8441 241.749 80.8294 245.697 109.5C249.709 138.642 212.765 156.253 202.246 183.709C192.664 208.718 208.749 244.261 187.74 260.769C166.86 277.175 136.743 253.881 110.316 255.942C80.1895 258.291 49.4816 289.3 23.6396 273.565C-1.72112 258.122 4.11438 219.014 1.00893 189.382C-1.46772 165.75 0.577595 142.854 7.56173 120.151C14.6468 97.1199 25.6948 76.5799 41.3342 58.2993C61.4056 34.8383 79.5579 1.46565 110.316 0.0433875Z" fill="#798CF5"/>
</svg>
