<svg width="261" height="275" viewBox="0 0 261 275" fill="none" xmlns="http://www.w3.org/2000/svg">
<path fill-rule="evenodd" clip-rule="evenodd" d="M127.566 1.80057C157.147 9.23209 162.175 50.3114 186.018 69.3568C208.035 86.9431 249.725 80.5433 259.336 107.055C268.875 133.367 234.618 155.365 226.96 182.286C218.816 210.913 236.969 250.142 213.454 268.344C190.103 286.419 156.919 262.289 127.566 259.221C102.36 256.587 76.0719 263.736 53.7835 251.655C29.7446 238.625 8.47702 217.431 1.59106 190.936C-5.14583 165.016 11.2675 140.209 18.0871 114.31C25.4514 86.3423 22.9062 54.1553 43.0617 33.4419C64.5774 11.3306 97.6658 -5.71122 127.566 1.80057Z" fill="#5068F0"/>
</svg>
