<svg width="239" height="227" viewBox="0 0 239 227" fill="none" xmlns="http://www.w3.org/2000/svg">
<path fill-rule="evenodd" clip-rule="evenodd" d="M103.493 0.180127C128.517 -1.53661 151.788 9.2829 173.792 21.3346C198.874 35.0717 234.623 45.8905 238.675 74.219C242.861 103.486 205.489 120.714 191.749 146.885C181.396 166.604 185.84 193.781 168.544 207.8C151.041 221.985 125.915 216.308 103.493 218.416C78.1063 220.803 50.2818 234.851 28.9125 220.927C7.50243 206.978 4.45849 176.873 0.875865 151.555C-2.20802 129.762 3.32621 108.75 10.074 87.8012C16.8385 66.8011 23.7765 45.6098 39.8622 30.5225C57.4357 14.0395 79.4654 1.82845 103.493 0.180127Z" fill="#687EF5"/>
</svg>
