<svg width="260" height="285" viewBox="0 0 260 285" fill="none" xmlns="http://www.w3.org/2000/svg">
<path fill-rule="evenodd" clip-rule="evenodd" d="M142.391 1.27506C172.348 -5.61741 204.863 16.5264 222.893 41.3894C239.413 64.1703 224.175 95.9996 230.891 123.314C236.808 147.38 264.264 165.694 259.433 190C254.565 214.489 226.834 225.664 207.418 241.396C186.659 258.216 168.996 287.449 142.391 284.836C115.508 282.195 106.013 247.632 86.039 229.473C69.1931 214.157 47.4951 205.799 34.7307 186.956C18.197 162.548 -8.97514 133.744 2.9264 106.78C15.1504 79.0855 60.8171 91.3971 84.9763 73.1207C110.047 54.1545 111.74 8.327 142.391 1.27506Z" fill="#5E75F3"/>
</svg>
